<?xml version="1.0" encoding="iso-8859-1"?>
<!-- Generator: Adobe Illustrator 19.0.0, SVG Export Plug-In . SVG Version: 6.00 Build 0)  -->
<svg version="1.1" id="Capa_1" xmlns="http://www.w3.org/2000/svg" xmlns:xlink="http://www.w3.org/1999/xlink" x="0px" y="0px"
	 viewBox="0 0 511.922 511.922" style="enable-background:new 0 0 511.922 511.922;" xml:space="preserve">
<g>
	<polygon style="fill:#656D78;" points="67.99,448.262 67.99,447.934 115.982,447.934 115.982,448.262 115.982,463.932 
		67.99,463.932 	"/>
	<polygon style="fill:#656D78;" points="395.94,448.262 395.94,447.934 443.932,447.934 443.932,448.262 443.932,463.932 
		395.94,463.932 	"/>
</g>
<g>
	<path style="fill:#FFCE54;" d="M447.932,255.968c6.639,0,11.998,5.359,11.998,11.994c0,6.641-5.359,11.998-11.998,11.998
		c-6.641,0-11.998-5.357-11.998-11.998C435.934,261.326,441.291,255.968,447.932,255.968z"/>
	<path style="fill:#FFCE54;" d="M63.99,255.968c6.64,0,11.998,5.359,11.998,11.994c0,6.641-5.358,11.998-11.998,11.998
		s-11.998-5.357-11.998-11.998C51.992,261.326,57.351,255.968,63.99,255.968z"/>
</g>
<g style="opacity:0.5;">
	<path style="fill:#FFFFFF;" d="M59.991,267.961c0-5.223,3.343-9.611,7.999-11.259c-1.257-0.445-2.593-0.734-4-0.734
		c-6.64,0-11.998,5.359-11.998,11.994c0,6.641,5.358,11.998,11.998,11.998c1.406,0,2.742-0.281,4-0.734
		C63.334,277.584,59.991,273.195,59.991,267.961z"/>
</g>
<g style="opacity:0.2;">
	<path d="M67.99,267.961c0,5.234-3.343,9.623-7.999,11.264c1.258,0.453,2.593,0.734,3.999,0.734c6.64,0,11.998-5.357,11.998-11.998
		c0-6.635-5.358-11.994-11.998-11.994c-1.406,0-2.741,0.289-3.999,0.734C64.647,258.35,67.99,262.738,67.99,267.961z"/>
</g>
<g style="opacity:0.5;">
	<path style="fill:#FFFFFF;" d="M443.932,267.961c0-5.223,3.344-9.611,7.999-11.259c-1.258-0.445-2.594-0.734-3.999-0.734
		c-6.641,0-11.998,5.359-11.998,11.994c0,6.641,5.357,11.998,11.998,11.998c1.405,0,2.741-0.281,3.999-0.734
		C447.275,277.584,443.932,273.195,443.932,267.961z"/>
</g>
<g style="opacity:0.2;">
	<path d="M451.931,267.961c0,5.234-3.343,9.623-7.999,11.264c1.258,0.453,2.594,0.734,4,0.734c6.639,0,11.998-5.357,11.998-11.998
		c0-6.635-5.359-11.994-11.998-11.994c-1.406,0-2.742,0.289-4,0.734C448.588,258.35,451.931,262.738,451.931,267.961z"/>
</g>
<path style="fill:#FC6E51;" d="M59.991,327.717C28.715,325.796,4,299.723,4,267.961c0-17.915,7.842-33.991,20.395-45.028
	l11.038-7.679l0.242-0.078c8.397-4.64,18.083-7.202,28.315-7.202c33.12,0,59.991,26.879,59.991,59.987v41.275v66.709v39.992v31.996
	h-7.999H67.99h-7.999V327.796V327.717z M75.988,267.961c0-6.635-5.358-11.994-11.998-11.994s-11.998,5.359-11.998,11.994
	c0,6.641,5.358,11.998,11.998,11.998S75.988,274.602,75.988,267.961z"/>
<g style="opacity:0.2;">
	<path d="M63.99,207.975c-1.21,0-2.382,0.156-3.577,0.227c31.042,2.273,55.569,28.145,55.569,59.76v41.275v66.709v39.992v31.996
		h7.999v-31.996v-39.992v-66.709v-41.275C123.982,234.854,97.11,207.975,63.99,207.975z"/>
</g>
<g style="opacity:0.3;">
	<path style="fill:#FFFFFF;" d="M67.99,327.717c-31.277-1.922-55.991-27.994-55.991-59.756c0-17.915,7.842-33.991,20.395-45.028
		l11.038-7.679l0.242-0.078c7.405-4.093,15.833-6.452,24.738-6.976c-1.468-0.109-2.929-0.227-4.421-0.227
		c-10.232,0-19.918,2.563-28.315,7.202l-0.242,0.078l-11.038,7.679C11.842,233.971,4,250.047,4,267.961
		c0,31.762,24.715,57.834,55.991,59.756v0.078v120.139h7.999V327.796V327.717z"/>
</g>
<g>
	<rect x="123.981" y="415.941" style="fill:#656D78;" width="263.96" height="31.996"/>
	<rect x="123.981" y="375.941" style="fill:#656D78;" width="263.96" height="39.992"/>
</g>
<g>
	<polygon style="fill:#FC6E51;" points="387.94,309.236 387.94,375.945 123.982,375.945 123.982,309.236 131.98,295.957 
		379.941,295.957 	"/>
	<path style="fill:#FC6E51;" d="M451.931,327.717v0.078v120.139h-7.999H395.94h-7.999v-31.996v-39.992v-66.709v-41.276
		c0-33.108,26.879-59.987,59.991-59.987c10.24,0,19.918,2.563,28.315,7.202l0.242,0.078l11.037,7.679
		c12.553,11.037,20.396,27.113,20.396,45.028C507.922,299.723,483.207,325.796,451.931,327.717z M459.93,267.961
		c0-6.635-5.359-11.994-11.998-11.994c-6.641,0-11.998,5.359-11.998,11.994c0,6.641,5.357,11.998,11.998,11.998
		C454.57,279.959,459.93,274.602,459.93,267.961z"/>
	<path style="fill:#FC6E51;" d="M387.94,267.961v41.275l-7.999-13.279l-23.996-39.99v-47.993c0-22.074,17.919-39.994,39.994-39.994
		c2.718,0,5.437,0.242,7.998,0.883c5.922,1.117,11.358,3.601,15.998,7.116l56.312,39.197c-8.397-4.64-18.075-7.202-28.315-7.202
		C414.819,207.975,387.94,234.854,387.94,267.961z"/>
	<path style="fill:#FC6E51;" d="M123.982,267.961c0-33.108-26.871-59.987-59.991-59.987c-10.232,0-19.918,2.563-28.315,7.202
		l56.312-39.197c2.484-1.835,5.202-3.437,7.999-4.64c4.96-2.156,10.319-3.359,15.998-3.359c22.075,0,39.994,17.919,39.994,39.994
		v47.993l-23.997,39.99l-7.999,13.279L123.982,267.961L123.982,267.961z"/>
	<polygon style="fill:#FC6E51;" points="355.945,255.968 379.941,295.957 131.98,295.957 155.977,255.968 	"/>
</g>
<g style="opacity:0.1;">
	<path d="M387.94,267.961v41.275l-7.999-13.279l-23.996-39.99v-47.993c0-22.074,17.919-39.994,39.994-39.994
		c2.718,0,5.437,0.242,7.998,0.883c5.922,1.117,11.358,3.601,15.998,7.116l56.312,39.197c-8.397-4.64-18.075-7.202-28.315-7.202
		C414.819,207.975,387.94,234.854,387.94,267.961z"/>
</g>
<g style="opacity:0.1;">
	<path d="M123.982,267.961c0-33.108-26.871-59.987-59.991-59.987c-10.232,0-19.918,2.563-28.315,7.202l56.312-39.197
		c2.484-1.835,5.202-3.437,7.999-4.64c4.96-2.156,10.319-3.359,15.998-3.359c22.075,0,39.994,17.919,39.994,39.994v47.993
		l-23.997,39.99l-7.999,13.279L123.982,267.961L123.982,267.961z"/>
</g>
<g style="opacity:0.3;">
	<path style="fill:#FFFFFF;" d="M107.983,175.98c2.484-1.835,5.203-3.437,7.999-4.64c2.593-1.125,5.312-1.961,8.108-2.531
		c-2.617-0.539-5.328-0.828-8.108-0.828c-5.679,0-11.037,1.203-15.998,3.359c-2.796,1.203-5.515,2.804-7.999,4.64l-56.312,39.197
		c7.795-4.304,16.724-6.726,26.144-7.069L107.983,175.98z"/>
</g>
<g style="opacity:0.2;">
	<path d="M404,175.98c-2.483-1.835-5.202-3.437-7.998-4.64c-2.594-1.125-5.313-1.961-8.116-2.531
		c2.616-0.539,5.335-0.828,8.116-0.828c5.671,0,11.029,1.203,15.997,3.359c2.797,1.203,5.515,2.804,7.999,4.64l56.304,39.197
		c-7.796-4.304-16.716-6.726-26.145-7.069L404,175.98z"/>
</g>
<g style="opacity:0.1;">
	<polygon points="355.945,255.968 379.941,295.957 131.98,295.957 155.977,255.968 	"/>
</g>
<g style="opacity:0.2;">
	<polygon points="379.941,312.096 387.94,312.096 387.94,309.236 379.941,295.957 355.945,255.968 347.946,255.968 371.943,295.957 
		379.941,309.236 	"/>
</g>
<g style="opacity:0.2;">
	<polygon points="131.98,312.096 123.982,312.096 123.982,309.236 131.98,295.957 155.977,255.968 163.975,255.968 139.979,295.957 
		131.98,309.236 	"/>
</g>
<path style="fill:#FC6E51;" d="M99.985,171.262v-43.274c0-44.235,35.76-79.988,79.988-79.988h143.978
	c44.235,0,79.987,35.752,79.987,79.988v40.791v0.086c-2.562-0.641-5.28-0.883-7.998-0.883c-22.075,0-39.994,17.919-39.994,39.994
	v47.993H155.977v-47.993c0-22.074-17.919-39.994-39.994-39.994c-5.679,0-11.037,1.203-15.998,3.359V171.262z"/>
<g style="opacity:0.1;">
	<path d="M99.985,171.262v-43.274c0-44.235,35.76-79.988,79.988-79.988h143.978c44.235,0,79.987,35.752,79.987,79.988v40.791v0.086
		c-2.562-0.641-5.28-0.883-7.998-0.883c-22.075,0-39.994,17.919-39.994,39.994v47.993H155.977v-47.993
		c0-22.074-17.919-39.994-39.994-39.994c-5.679,0-11.037,1.203-15.998,3.359V171.262z"/>
</g>
<g style="opacity:0.3;">
	<path style="fill:#FFFFFF;" d="M107.983,127.988c0-44.235,35.761-79.988,79.988-79.988h-7.999
		c-44.228,0-79.988,35.752-79.988,79.988v43.274v0.078c2.562-1.109,5.234-1.945,7.999-2.515L107.983,127.988L107.983,127.988z"/>
</g>
<g style="opacity:0.2;">
	<path d="M395.94,127.988C395.94,83.753,360.18,48,315.952,48h7.999c44.228,0,79.987,35.752,79.987,79.988v43.274v0.078
		c-2.562-1.109-5.233-1.945-7.998-2.515V127.988z"/>
</g>
<g style="opacity:0.2;">
	<path style="fill:#FFFFFF;" d="M447.932,207.975c1.21,0,2.382,0.156,3.577,0.227c-31.05,2.273-55.569,28.145-55.569,59.76v41.275
		v66.709v39.992v31.996h-7.999v-31.996v-39.992v-66.709v-41.275C387.94,234.854,414.819,207.975,447.932,207.975z"/>
</g>
<g style="opacity:0.2;">
	<path d="M443.932,327.717c31.276-1.922,55.991-27.994,55.991-59.756c0-17.915-7.835-33.991-20.396-45.028l-11.045-7.679
		l-0.234-0.078c-7.404-4.093-15.841-6.452-24.738-6.976c1.461-0.109,2.93-0.227,4.422-0.227c10.24,0,19.918,2.563,28.315,7.202
		l0.234,0.078l11.045,7.679c12.561,11.037,20.396,27.113,20.396,45.028c0,31.762-24.715,57.834-55.991,59.756v0.078v120.139h-7.999
		V327.796V327.717z"/>
</g>
<g style="opacity:0.2;">
	<rect x="123.981" y="312.091" width="7.999" height="135.84"/>
</g>
<g style="opacity:0.2;">
	<rect x="379.941" y="312.091" width="7.999" height="135.84"/>
</g>
<g style="opacity:0.2;">
	<polygon style="fill:#FFFFFF;" points="352.727,263.934 159.194,263.934 163.975,255.968 347.946,255.968 	"/>
</g>
<g style="opacity:0.2;">
	<polygon style="fill:#FFFFFF;" points="376.724,303.924 135.198,303.924 139.979,295.957 371.943,295.957 	"/>
</g>
<g style="opacity:0.2;">
	<rect x="131.981" y="367.941" style="fill:#FFFFFF;" width="247.96" height="7.984"/>
</g>
<g style="opacity:0.2;">
	<rect x="131.981" y="407.971" style="fill:#FFFFFF;" width="247.96" height="7.967"/>
</g>
<g style="opacity:0.2;">
	<rect x="131.981" y="439.961" style="fill:#FFFFFF;" width="247.96" height="7.969"/>
</g>
<g style="opacity:0.2;">
	<rect x="67.991" y="447.931" width="47.993" height="7.998"/>
</g>
<g style="opacity:0.2;">
	<rect x="395.941" y="447.931" width="47.992" height="7.998"/>
</g>
<g>
	<path style="fill:#3A3847;" d="M59.991,451.934c-2.211,0-4-1.781-4-4V335.951c0-2.203,1.789-4,4-4c2.21,0,3.999,1.797,3.999,4
		v111.982C63.99,450.152,62.202,451.934,59.991,451.934z"/>
	<path style="fill:#3A3847;" d="M123.982,451.934c-2.211,0-4-1.781-4-4V267.961c0-2.203,1.789-4,4-4c2.21,0,3.999,1.797,3.999,4
		v179.973C127.981,450.152,126.192,451.934,123.982,451.934z"/>
	<path style="fill:#3A3847;" d="M63.99,331.951c-35.283,0-63.99-28.699-63.99-63.99c0-35.28,28.707-63.986,63.99-63.986
		c35.284,0,63.99,28.706,63.99,63.986c0,2.219-1.789,4-3.999,4c-2.211,0-4-1.781-4-4c0-30.866-25.118-55.987-55.992-55.987
		s-55.99,25.121-55.99,55.987c0,30.871,25.117,55.992,55.991,55.992c2.211,0,4,1.795,4,3.998
		C67.99,330.171,66.201,331.951,63.99,331.951z"/>
	<path style="fill:#3A3847;" d="M123.982,451.934H59.991c-2.211,0-4-1.781-4-4c0-2.203,1.789-4,4-4h63.99
		c2.21,0,3.999,1.797,3.999,4C127.981,450.152,126.192,451.934,123.982,451.934z"/>
	<path style="fill:#3A3847;" d="M451.931,451.934c-2.211,0-3.999-1.781-3.999-4V335.951c0-2.203,1.788-4,3.999-4
		c2.21,0,3.999,1.797,3.999,4v111.982C455.93,450.152,454.141,451.934,451.931,451.934z"/>
	<path style="fill:#3A3847;" d="M387.94,451.934c-2.211,0-3.999-1.781-3.999-4V267.961c0-2.203,1.788-4,3.999-4s3.999,1.797,3.999,4
		v179.973C391.94,450.152,390.151,451.934,387.94,451.934z"/>
	<path style="fill:#3A3847;" d="M447.932,331.951c-2.211,0-4-1.781-4-4c0-2.203,1.789-3.998,4-3.998
		c30.87,0,55.991-25.121,55.991-55.992c0-30.866-25.121-55.987-55.991-55.987c-30.871,0-55.992,25.121-55.992,55.987
		c0,2.219-1.788,4-3.999,4s-3.999-1.781-3.999-4c0-35.28,28.706-63.986,63.99-63.986c35.283,0,63.99,28.706,63.99,63.986
		C511.922,303.252,483.215,331.951,447.932,331.951z"/>
	<path style="fill:#3A3847;" d="M451.931,451.934h-63.99c-2.211,0-3.999-1.781-3.999-4c0-2.203,1.788-4,3.999-4h63.99
		c2.21,0,3.999,1.797,3.999,4C455.93,450.152,454.141,451.934,451.931,451.934z"/>
	<path style="fill:#3A3847;" d="M379.941,451.934H131.98c-2.21,0-4-1.781-4-4c0-2.203,1.789-4,4-4h247.961c2.211,0,4,1.797,4,4
		C383.941,450.152,382.152,451.934,379.941,451.934z"/>
	<path style="fill:#3A3847;" d="M379.941,419.938H131.98c-2.21,0-4-1.781-4-4c0-2.201,1.789-3.998,4-3.998h247.961
		c2.211,0,4,1.797,4,3.998C383.941,418.156,382.152,419.938,379.941,419.938z"/>
	<path style="fill:#3A3847;" d="M379.941,379.943H131.98c-2.21,0-4-1.781-4-3.998c0-2.203,1.789-4,4-4h247.961c2.211,0,4,1.797,4,4
		C383.941,378.162,382.152,379.943,379.941,379.943z"/>
	<path style="fill:#3A3847;" d="M347.946,259.967H163.975c-2.21,0-4-1.789-4-4c0-2.211,1.789-4,4-4h183.971c2.211,0,4,1.789,4,4
		C351.946,258.178,350.157,259.967,347.946,259.967z"/>
	<path style="fill:#3A3847;" d="M99.985,131.986c-2.21,0-4-1.789-4-3.999c0-46.313,37.678-83.987,83.987-83.987
		c2.21,0,3.999,1.789,3.999,4s-1.789,4-3.999,4c-41.9,0-75.988,34.088-75.988,75.988
		C103.984,130.197,102.195,131.986,99.985,131.986z"/>
	<path style="fill:#3A3847;" d="M403.938,131.979c-2.21,0-3.999-1.789-3.999-3.999c0-41.9-34.089-75.988-75.988-75.988
		c-2.21,0-3.999-1.789-3.999-4s1.789-4,3.999-4c46.313,0,83.987,37.674,83.987,83.987
		C407.938,130.191,406.149,131.979,403.938,131.979z"/>
	<path style="fill:#3A3847;" d="M131.976,299.957c-0.699,0-1.41-0.172-2.054-0.563c-1.895-1.141-2.508-3.594-1.371-5.484
		l23.996-39.998c1.137-1.898,3.59-2.523,5.487-1.375c1.895,1.133,2.508,3.594,1.371,5.484l-23.996,39.998
		C134.659,299.27,133.335,299.957,131.976,299.957z"/>
	<path style="fill:#3A3847;" d="M23.22,227.824c-1.266,0-2.512-0.602-3.289-1.719c-1.261-1.812-0.813-4.304,1-5.562l68.771-47.844
		c1.813-1.258,4.308-0.813,5.569,1c1.262,1.812,0.813,4.304-1,5.562L25.5,227.105C24.805,227.589,24.008,227.824,23.22,227.824z"/>
	<path style="fill:#3A3847;" d="M379.941,299.957c-1.352,0-2.679-0.688-3.429-1.938l-23.997-39.998
		c-1.14-1.89-0.522-4.351,1.375-5.484c1.883-1.133,4.352-0.523,5.484,1.375l23.996,39.998c1.141,1.891,0.523,4.344-1.375,5.484
		C381.356,299.785,380.645,299.957,379.941,299.957z"/>
	<path style="fill:#3A3847;" d="M155.977,259.967c-2.211,0-4-1.789-4-4v-47.993c0-2.21,1.789-3.999,4-3.999
		c2.21,0,3.999,1.789,3.999,3.999v47.993C159.976,258.178,158.187,259.967,155.977,259.967z"/>
	<path style="fill:#3A3847;" d="M155.977,211.975c-2.211,0-4-1.789-4-4c0-19.849-16.146-35.994-35.994-35.994
		c-7.858,0-15.326,2.492-21.594,7.194c-1.761,1.343-4.269,0.969-5.601-0.789c-1.324-1.773-0.968-4.281,0.797-5.601
		c7.663-5.757,16.794-8.804,26.398-8.804c24.258,0,43.993,19.739,43.993,43.993C159.976,210.186,158.187,211.975,155.977,211.975z"
		/>
	<path style="fill:#3A3847;" d="M488.706,227.824c-0.789,0-1.586-0.234-2.28-0.719l-68.771-47.844c-1.82-1.258-2.265-3.75-1-5.562
		c1.258-1.813,3.758-2.25,5.563-1l68.771,47.844c1.819,1.258,2.265,3.75,0.999,5.562
		C491.214,227.221,489.964,227.824,488.706,227.824z"/>
	<path style="fill:#3A3847;" d="M355.945,211.975c-2.211,0-3.999-1.789-3.999-4c0-24.254,19.739-43.993,43.993-43.993
		c9.607,0,18.731,3.047,26.402,8.804c1.765,1.32,2.116,3.827,0.789,5.601c-1.32,1.758-3.82,2.132-5.602,0.789
		c-6.265-4.703-13.732-7.194-21.59-7.194c-19.849,0-35.994,16.146-35.994,35.994C359.945,210.186,358.156,211.975,355.945,211.975z"
		/>
	<path style="fill:#3A3847;" d="M355.945,259.967c-2.211,0-3.999-1.789-3.999-4v-47.993c0-2.21,1.788-3.999,3.999-3.999
		s4,1.789,4,3.999v47.993C359.945,258.178,358.156,259.967,355.945,259.967z"/>
	<path style="fill:#3A3847;" d="M403.938,164.31c-2.21,0-3.999-1.789-3.999-3.999V127.98c0-2.211,1.789-4,3.999-4
		c2.211,0,4,1.789,4,4v32.331C407.938,162.521,406.149,164.31,403.938,164.31z"/>
	<path style="fill:#3A3847;" d="M99.985,167.318c-2.21,0-4-1.789-4-4v-35.33c0-2.211,1.789-4,4-4s4,1.789,4,4v35.33
		C103.984,165.529,102.195,167.318,99.985,167.318z"/>
	<path style="fill:#3A3847;" d="M323.95,51.999H179.973c-2.211,0-4-1.789-4-4s1.789-4,4-4h143.978c2.211,0,3.999,1.789,3.999,4
		S326.161,51.999,323.95,51.999z"/>
	<path style="fill:#3A3847;" d="M363.944,299.957H147.978c-2.211,0-4-1.781-4-4c0-2.203,1.789-4,4-4h215.967
		c2.21,0,3.999,1.797,3.999,4C367.943,298.176,366.154,299.957,363.944,299.957z"/>
	<path style="fill:#3A3847;" d="M63.99,283.959c-8.822,0-15.997-7.172-15.997-15.998c0-8.814,7.175-15.994,15.997-15.994
		c8.823,0,15.998,7.179,15.998,15.994C79.988,276.787,72.814,283.959,63.99,283.959z M63.99,259.967
		c-4.409,0-7.999,3.584-7.999,7.994c0,4.422,3.589,7.998,7.999,7.998c4.41,0,7.999-3.576,7.999-7.998
		C71.989,263.551,68.4,259.967,63.99,259.967z"/>
	<path style="fill:#3A3847;" d="M447.932,283.959c-8.819,0-15.998-7.172-15.998-15.998c0-8.814,7.179-15.994,15.998-15.994
		c8.818,0,15.997,7.179,15.997,15.994C463.929,276.787,456.75,283.959,447.932,283.959z M447.932,259.967
		c-4.414,0-7.999,3.584-7.999,7.994c0,4.422,3.585,7.998,7.999,7.998c4.413,0,7.998-3.576,7.998-7.998
		C455.93,263.551,452.345,259.967,447.932,259.967z"/>
	<path style="fill:#3A3847;" d="M67.99,467.93c-2.21,0-4-1.781-4-3.998v-8c0-2.203,1.789-3.998,4-3.998s4,1.795,4,3.998v8
		C71.989,466.149,70.2,467.93,67.99,467.93z"/>
	<path style="fill:#3A3847;" d="M115.982,467.93H67.99c-2.21,0-4-1.781-4-3.998c0-2.203,1.789-4,4-4h47.993c2.211,0,4,1.797,4,4
		C119.982,466.149,118.193,467.93,115.982,467.93z"/>
	<path style="fill:#3A3847;" d="M115.982,467.93c-2.211,0-3.999-1.781-3.999-3.998v-8c0-2.203,1.788-3.998,3.999-3.998
		s4,1.795,4,3.998v8C119.982,466.149,118.193,467.93,115.982,467.93z"/>
	<path style="fill:#3A3847;" d="M395.94,467.93c-2.211,0-4-1.781-4-3.998v-8c0-2.203,1.789-3.998,4-3.998s3.999,1.795,3.999,3.998v8
		C399.939,466.149,398.15,467.93,395.94,467.93z"/>
	<path style="fill:#3A3847;" d="M443.932,467.93H395.94c-2.211,0-4-1.781-4-3.998c0-2.203,1.789-4,4-4h47.992c2.211,0,4,1.797,4,4
		C447.932,466.149,446.143,467.93,443.932,467.93z"/>
	<path style="fill:#3A3847;" d="M443.932,467.93c-2.211,0-3.999-1.781-3.999-3.998v-8c0-2.203,1.788-3.998,3.999-3.998
		s4,1.795,4,3.998v8C447.932,466.149,446.143,467.93,443.932,467.93z"/>
</g>
<g>
</g>
<g>
</g>
<g>
</g>
<g>
</g>
<g>
</g>
<g>
</g>
<g>
</g>
<g>
</g>
<g>
</g>
<g>
</g>
<g>
</g>
<g>
</g>
<g>
</g>
<g>
</g>
<g>
</g>
</svg>
